<?xml version="1.0" encoding="utf-8"?>
<!-- Generator: Adobe Illustrator 24.3.0, SVG Export Plug-In . SVG Version: 6.00 Build 0)  -->
<svg version="1.1" id="Layer_1" xmlns="http://www.w3.org/2000/svg" xmlns:xlink="http://www.w3.org/1999/xlink" x="0px" y="0px"
	 viewBox="0 0 11.45 13.39" style="enable-background:new 0 0 11.45 13.39;" xml:space="preserve">
<g>
	<path d="M1.66,11.57C0.55,10.36,0,8.74,0,6.69c0-2.04,0.55-3.67,1.66-4.88S4.18,0,5.92,0C7.3,0,8.48,0.37,9.45,1.12
		c0.97,0.75,1.61,1.85,1.93,3.29H9.85C9.31,2.39,8,1.38,5.92,1.38c-1.31,0-2.36,0.47-3.15,1.4C1.98,3.74,1.58,5.04,1.58,6.69
		c0,1.66,0.4,2.95,1.19,3.89c0.79,0.95,1.84,1.42,3.15,1.42c0.98,0,1.86-0.31,2.63-0.92c0.76-0.59,1.22-1.47,1.38-2.65h1.51
		c-0.17,1.6-0.78,2.81-1.82,3.65c-1.06,0.86-2.29,1.3-3.71,1.3C4.18,13.39,2.76,12.79,1.66,11.57z"/>
</g>
</svg>
