<?xml version="1.0" encoding="utf-8"?>
<!-- Generator: Adobe Illustrator 24.3.0, SVG Export Plug-In . SVG Version: 6.00 Build 0)  -->
<svg version="1.1" id="Layer_1" xmlns="http://www.w3.org/2000/svg" xmlns:xlink="http://www.w3.org/1999/xlink" x="0px" y="0px"
	 viewBox="0 0 44.51 13.69" style="enable-background:new 0 0 44.51 13.69;" xml:space="preserve">
	<path d="M2.29,11.87c-1.1-1.21-1.66-2.84-1.66-4.88c0-2.04,0.55-3.67,1.66-4.88S4.81,0.3,6.55,0.3c1.38,0,2.56,0.38,3.53,1.13
		c0.97,0.75,1.62,1.85,1.93,3.29h-1.53C9.94,2.69,8.63,1.68,6.55,1.68c-1.31,0-2.36,0.47-3.15,1.4C2.61,4.04,2.21,5.34,2.21,6.99
		c0,1.66,0.4,2.95,1.19,3.89c0.79,0.95,1.84,1.42,3.15,1.42c0.98,0,1.86-0.31,2.63-0.92c0.76-0.59,1.22-1.47,1.39-2.65h1.51
		c-0.17,1.6-0.77,2.81-1.82,3.65c-1.06,0.86-2.29,1.3-3.71,1.3C4.81,13.69,3.39,13.09,2.29,11.87z"/>
	<path d="M13.7,13.4V0.58h1.44V13.4H13.7z"/>
	<path d="M21.35,13.62c-1.31,0-2.39-0.44-3.24-1.33c-0.84-0.88-1.26-2.05-1.26-3.53s0.42-2.65,1.26-3.53
		c0.85-0.89,1.93-1.33,3.24-1.33c1.31,0,2.39,0.44,3.24,1.33c0.84,0.88,1.26,2.05,1.26,3.53s-0.42,2.65-1.26,3.53
		C23.74,13.18,22.66,13.62,21.35,13.62z M21.35,12.32c0.91,0,1.64-0.32,2.18-0.96c0.54-0.62,0.81-1.49,0.81-2.61
		c0-1.13-0.27-2-0.81-2.63c-0.54-0.62-1.27-0.94-2.18-0.94s-1.64,0.31-2.18,0.94c-0.54,0.62-0.81,1.5-0.81,2.63
		c0,1.12,0.27,1.99,0.81,2.61C19.71,12.01,20.44,12.32,21.35,12.32z"/>
	<path d="M26.71,10.45h1.46c0.08,0.7,0.31,1.19,0.69,1.49c0.38,0.29,0.98,0.44,1.79,0.44c1.49,0,2.23-0.48,2.23-1.44
		c0-0.42-0.15-0.74-0.46-0.95c-0.31-0.22-0.86-0.4-1.67-0.56L29.9,9.26C27.97,8.9,27,7.99,27,6.53c0-0.8,0.3-1.44,0.91-1.92
		s1.43-0.71,2.48-0.71c2.46,0,3.72,1.03,3.78,3.08h-1.44c-0.04-0.67-0.24-1.15-0.61-1.42c-0.37-0.28-0.95-0.41-1.73-0.41
		c-0.62,0-1.1,0.12-1.44,0.36s-0.5,0.58-0.5,1.01c0,0.41,0.14,0.71,0.43,0.92c0.29,0.2,0.77,0.38,1.44,0.52l0.83,0.16
		c1.14,0.23,1.96,0.55,2.46,0.97c0.5,0.42,0.75,1.01,0.75,1.76c0,0.88-0.33,1.56-0.98,2.04s-1.56,0.73-2.71,0.73
		C28.17,13.62,26.86,12.56,26.71,10.45z"/>
	<path d="M43.89,9.26h-7.06c0.07,1.01,0.35,1.77,0.85,2.28c0.49,0.51,1.16,0.77,2.02,0.77c1.28,0,2.11-0.58,2.47-1.73h1.49
		c-0.25,0.94-0.72,1.68-1.4,2.22c-0.68,0.55-1.55,0.82-2.59,0.82c-1.28,0-2.32-0.44-3.11-1.31c-0.8-0.88-1.21-2.06-1.21-3.55
		c0-1.46,0.4-2.64,1.19-3.53c0.78-0.89,1.81-1.33,3.1-1.33c1.33,0,2.38,0.46,3.13,1.39c0.76,0.92,1.13,2.08,1.13,3.48V9.26z
		 M37.76,5.92c-0.48,0.47-0.78,1.16-0.9,2.04h5.47c-0.07-0.82-0.35-1.48-0.83-1.99c-0.48-0.51-1.11-0.77-1.89-0.77
		C38.86,5.21,38.24,5.45,37.76,5.92z"/>
</svg>
