<?xml version="1.0" encoding="utf-8"?>
<!-- Generator: Adobe Illustrator 24.3.0, SVG Export Plug-In . SVG Version: 6.00 Build 0)  -->
<svg version="1.1" id="Layer_1" xmlns="http://www.w3.org/2000/svg" xmlns:xlink="http://www.w3.org/1999/xlink" x="0px" y="0px"
	 viewBox="0 0 8.55 9.72" style="enable-background:new 0 0 8.55 9.72;" xml:space="preserve">
	<path d="M8.55,5.36H1.49c0.07,1.01,0.35,1.77,0.85,2.28c0.49,0.51,1.16,0.77,2.02,0.77c1.28,0,2.11-0.58,2.47-1.73h1.49
		C8.07,7.61,7.6,8.35,6.91,8.9C6.23,9.45,5.37,9.72,4.32,9.72C3.04,9.72,2,9.28,1.21,8.41C0.4,7.53,0,6.35,0,4.86
		c0-1.46,0.4-2.64,1.19-3.53C1.97,0.44,3,0,4.29,0c1.33,0,2.38,0.46,3.13,1.39s1.13,2.08,1.13,3.48V5.36z M2.43,2.02
		C1.95,2.5,1.65,3.18,1.53,4.07H7C6.93,3.25,6.66,2.59,6.18,2.08C5.7,1.57,5.07,1.31,4.29,1.31C3.53,1.31,2.91,1.55,2.43,2.02z"/>
</svg>
