<?xml version="1.0" encoding="utf-8"?>
<!-- Generator: Adobe Illustrator 24.3.0, SVG Export Plug-In . SVG Version: 6.00 Build 0)  -->
<svg version="1.1" id="Layer_1" xmlns="http://www.w3.org/2000/svg" xmlns:xlink="http://www.w3.org/1999/xlink" x="0px" y="0px"
	 viewBox="0 0 9.02 9.73" style="enable-background:new 0 0 9.02 9.73;" xml:space="preserve">
<g>
	<path d="M4.51,9.73c-1.31,0-2.39-0.44-3.24-1.33C0.43,7.52,0.01,6.34,0.01,4.87c0-1.48,0.42-2.65,1.26-3.53C2.12,0.45,3.2,0,4.51,0
		C5.82,0,6.9,0.45,7.75,1.34c0.84,0.88,1.26,2.05,1.26,3.53c0,1.48-0.42,2.65-1.26,3.53C6.9,9.28,5.82,9.73,4.51,9.73z M4.51,8.43
		c0.91,0,1.64-0.32,2.18-0.95C7.23,6.85,7.5,5.98,7.5,4.87c0-1.13-0.27-2-0.81-2.63C6.15,1.61,5.42,1.3,4.51,1.3
		c-0.91,0-1.64,0.31-2.18,0.94c-0.54,0.62-0.81,1.5-0.81,2.63c0,1.12,0.27,1.99,0.81,2.61C2.87,8.11,3.6,8.43,4.51,8.43z"/>
</g>
</svg>
