<?xml version="1.0" encoding="utf-8"?>
<!-- Generator: Adobe Illustrator 24.3.0, SVG Export Plug-In . SVG Version: 6.00 Build 0)  -->
<svg version="1.1" id="Layer_1" xmlns="http://www.w3.org/2000/svg" xmlns:xlink="http://www.w3.org/1999/xlink" x="0px" y="0px"
	 viewBox="0 0 7.63 9.73" style="enable-background:new 0 0 7.63 9.73;" xml:space="preserve">
<g>
	<path d="M0,6.56h1.46c0.08,0.7,0.31,1.19,0.69,1.49c0.38,0.29,0.98,0.44,1.79,0.44c1.49,0,2.23-0.48,2.23-1.44
		c0-0.42-0.15-0.74-0.46-0.95c-0.31-0.22-0.86-0.4-1.67-0.56L3.19,5.37c-1.93-0.36-2.9-1.27-2.9-2.74c0-0.8,0.3-1.44,0.91-1.92
		C1.8,0.24,2.63,0,3.67,0c2.46,0,3.72,1.03,3.78,3.08H6.01C5.98,2.41,5.77,1.94,5.4,1.66C5.03,1.39,4.45,1.25,3.67,1.25
		c-0.62,0-1.1,0.12-1.44,0.36c-0.34,0.24-0.5,0.58-0.5,1.01c0,0.41,0.14,0.71,0.43,0.92c0.29,0.2,0.77,0.38,1.44,0.52l0.83,0.16
		c1.14,0.23,1.96,0.55,2.46,0.97S7.63,6.2,7.63,6.95c0,0.88-0.33,1.56-0.98,2.04S5.09,9.73,3.94,9.73C1.46,9.73,0.14,8.67,0,6.56z"
		/>
</g>
</svg>
